# xmcd
#
# Track frame offsets: 
#        150
#        18827
#        31044
#        52446
#        67819
#        87445
#        96653
#        115506
#        128238
#        139406
#        156352
#        165393
#
# Disc length: 2550 seconds
#
# Revision: 1
# Processed by: cddbd v1.5.2PL0 Copyright (c) Steve Scherf et al.
# Submitted via: ExactAudioCopy v1.0b3
#
DISCID=9f09f40c
DTITLE=Harmonica Hinds - Anything If I Could
DYEAR=2010
DGENRE=Blues
TTITLE0=Cuddle Inn
TTITLE1=Credit Card
TTITLE2=Anything If I Could
TTITLE3=Thinking Bout The Good Times
TTITLE4=Politics And Personality
TTITLE5=Way Down South
TTITLE6=You're Looking Good
TTITLE7=It's So Nice
TTITLE8=Walking Down The Street
TTITLE9=Child Of The Universe
TTITLE10=Amigo
TTITLE11=Horse
EXTD=
EXTT0=
EXTT1=
EXTT2=
EXTT3=
EXTT4=
EXTT5=
EXTT6=
EXTT7=
EXTT8=
EXTT9=
EXTT10=
EXTT11=
PLAYORDER=
